<svg xmlns="http://www.w3.org/2000/svg" xmlns:xlink="http://www.w3.org/1999/xlink" width="500" zoomAndPan="magnify" viewBox="0 0 375 374.999991" height="500" preserveAspectRatio="xMidYMid meet" version="1.0"><defs><clipPath id="4f0268b4e8"><path d="M 52.015625 10.691406 L 322.765625 10.691406 L 322.765625 364.683594 L 52.015625 364.683594 Z M 52.015625 10.691406 " clip-rule="nonzero"/></clipPath></defs><g clip-path="url(#4f0268b4e8)"><path fill="#e4ebf0" d="M 304.410156 364.699219 L 70.367188 364.699219 C 60.230469 364.699219 52.015625 356.464844 52.015625 346.308594 L 52.015625 29.085938 C 52.015625 18.929688 60.230469 10.699219 70.367188 10.699219 L 304.410156 10.699219 C 314.546875 10.699219 322.765625 18.929688 322.765625 29.085938 L 322.765625 346.308594 C 322.765625 356.464844 314.546875 364.699219 304.410156 364.699219 " fill-opacity="1" fill-rule="nonzero"/></g><path fill="#7cbdd5" d="M 290.640625 93.449219 L 84.140625 93.449219 C 79.066406 93.449219 74.957031 89.335938 74.957031 84.253906 L 74.957031 42.878906 C 74.957031 37.800781 79.066406 33.6875 84.140625 33.6875 L 290.640625 33.6875 C 295.710938 33.6875 299.820312 37.800781 299.820312 42.878906 L 299.820312 84.253906 C 299.820312 89.335938 295.710938 93.449219 290.640625 93.449219 " fill-opacity="1" fill-rule="nonzero"/><path fill="#cecdd0" d="M 120.847656 341.710938 L 74.957031 341.710938 L 74.957031 295.738281 L 120.847656 295.738281 L 120.847656 341.710938 " fill-opacity="1" fill-rule="nonzero"/><path fill="#3f5267" d="M 103.011719 318.722656 C 103.011719 317.136719 102.925781 315.652344 102.746094 314.269531 C 102.574219 312.886719 102.289062 311.6875 101.890625 310.671875 C 101.496094 309.65625 100.972656 308.855469 100.324219 308.265625 C 99.679688 307.679688 98.871094 307.382812 97.902344 307.382812 C 96.9375 307.382812 96.121094 307.679688 95.460938 308.265625 C 94.800781 308.855469 94.269531 309.65625 93.875 310.671875 C 93.476562 311.6875 93.199219 312.886719 93.035156 314.269531 C 92.875 315.652344 92.796875 317.136719 92.796875 318.722656 C 92.796875 320.3125 92.875 321.800781 93.035156 323.183594 C 93.199219 324.566406 93.476562 325.765625 93.875 326.78125 C 94.269531 327.792969 94.800781 328.597656 95.460938 329.1875 C 96.121094 329.777344 96.9375 330.066406 97.902344 330.066406 C 98.871094 330.066406 99.679688 329.777344 100.324219 329.1875 C 100.972656 328.597656 101.496094 327.792969 101.890625 326.78125 C 102.289062 325.765625 102.574219 324.566406 102.746094 323.183594 C 102.925781 321.800781 103.011719 320.3125 103.011719 318.722656 Z M 108.523438 318.722656 C 108.523438 323.875 107.582031 327.824219 105.699219 330.574219 C 103.820312 333.332031 101.21875 334.703125 97.902344 334.703125 C 94.582031 334.703125 91.988281 333.332031 90.105469 330.574219 C 88.226562 327.824219 87.285156 323.875 87.285156 318.722656 C 87.285156 316.164062 87.527344 313.894531 88.015625 311.90625 C 88.496094 309.917969 89.203125 308.25 90.128906 306.898438 C 91.054688 305.542969 92.167969 304.515625 93.476562 303.8125 C 94.785156 303.101562 96.257812 302.746094 97.902344 302.746094 C 101.21875 302.746094 103.820312 304.125 105.699219 306.875 C 107.582031 309.628906 108.523438 313.574219 108.523438 318.722656 " fill-opacity="1" fill-rule="nonzero"/><path fill="#cecdd0" d="M 120.847656 281.945312 L 74.957031 281.945312 L 74.957031 235.972656 L 120.847656 235.972656 L 120.847656 281.945312 " fill-opacity="1" fill-rule="nonzero"/><path fill="#3f5267" d="M 91.1875 250.023438 C 92.890625 249.34375 94.597656 248.476562 96.316406 247.414062 C 98.035156 246.355469 99.554688 245.105469 100.875 243.664062 L 104.621094 243.664062 L 104.621094 274.253906 L 99.289062 274.253906 L 99.289062 250.816406 C 98.5 251.429688 97.503906 252.035156 96.296875 252.625 C 95.089844 253.210938 93.933594 253.699219 92.816406 254.082031 L 91.1875 250.023438 " fill-opacity="1" fill-rule="nonzero"/><path fill="#cecdd0" d="M 180.503906 281.945312 L 134.613281 281.945312 L 134.613281 235.972656 L 180.503906 235.972656 L 180.503906 281.945312 " fill-opacity="1" fill-rule="nonzero"/><path fill="#3f5267" d="M 166.679688 251.960938 C 166.679688 253.019531 166.457031 254.058594 166.019531 255.078125 C 165.582031 256.089844 165.015625 257.078125 164.320312 258.03125 C 163.636719 258.984375 162.847656 259.914062 161.964844 260.8125 C 161.085938 261.710938 160.203125 262.582031 159.324219 263.4375 C 158.855469 263.882812 158.324219 264.410156 157.738281 265.027344 C 157.144531 265.644531 156.589844 266.265625 156.0625 266.878906 C 155.535156 267.5 155.078125 268.097656 154.699219 268.671875 C 154.316406 269.242188 154.109375 269.71875 154.078125 270.101562 L 167.648438 270.101562 L 167.648438 274.605469 L 148.21875 274.605469 C 148.195312 274.371094 148.175781 274.085938 148.175781 273.746094 C 148.175781 273.40625 148.175781 273.148438 148.175781 272.972656 C 148.175781 271.558594 148.40625 270.261719 148.859375 269.0625 C 149.316406 267.875 149.914062 266.761719 150.640625 265.734375 C 151.378906 264.707031 152.203125 263.734375 153.113281 262.820312 C 154.019531 261.910156 154.929688 261.011719 155.84375 260.128906 C 156.546875 259.453125 157.226562 258.789062 157.871094 258.144531 C 158.515625 257.496094 159.082031 256.855469 159.5625 256.226562 C 160.050781 255.589844 160.441406 254.945312 160.730469 254.28125 C 161.027344 253.621094 161.175781 252.9375 161.175781 252.226562 C 161.175781 250.699219 160.730469 249.609375 159.855469 248.960938 C 158.96875 248.316406 157.898438 247.988281 156.632812 247.988281 C 155.8125 247.988281 155.046875 248.109375 154.34375 248.34375 C 153.640625 248.582031 153.015625 248.863281 152.472656 249.183594 C 151.925781 249.507812 151.449219 249.835938 151.039062 250.175781 C 150.632812 250.515625 150.320312 250.785156 150.117188 250.992188 L 147.472656 247.242188 C 148.707031 246.066406 150.148438 245.117188 151.8125 244.394531 C 153.472656 243.671875 155.253906 243.308594 157.164062 243.308594 C 160.425781 243.308594 162.824219 244.082031 164.363281 245.628906 C 165.910156 247.171875 166.679688 249.285156 166.679688 251.960938 " fill-opacity="1" fill-rule="nonzero"/><path fill="#cecdd0" d="M 240.164062 281.945312 L 194.273438 281.945312 L 194.273438 235.972656 L 240.164062 235.972656 L 240.164062 281.945312 " fill-opacity="1" fill-rule="nonzero"/><path fill="#3f5267" d="M 215.429688 274.9375 C 214.636719 274.9375 213.824219 274.886719 212.988281 274.777344 C 212.148438 274.679688 211.355469 274.546875 210.609375 274.386719 C 209.859375 274.222656 209.175781 274.046875 208.5625 273.855469 C 207.945312 273.667969 207.472656 273.480469 207.152344 273.300781 L 208.207031 268.753906 C 208.828125 269.050781 209.71875 269.378906 210.894531 269.75 C 212.066406 270.117188 213.523438 270.300781 215.257812 270.300781 C 217.578125 270.300781 219.25 269.851562 220.28125 268.957031 C 221.304688 268.0625 221.820312 266.859375 221.820312 265.359375 C 221.820312 264.390625 221.625 263.578125 221.226562 262.933594 C 220.832031 262.285156 220.285156 261.761719 219.59375 261.363281 C 218.90625 260.96875 218.113281 260.691406 217.21875 260.527344 C 216.320312 260.363281 215.375 260.285156 214.375 260.285156 L 212.570312 260.285156 L 212.570312 255.960938 L 214.769531 255.960938 C 215.449219 255.960938 216.128906 255.890625 216.824219 255.761719 C 217.511719 255.628906 218.132812 255.390625 218.695312 255.054688 C 219.25 254.714844 219.703125 254.265625 220.058594 253.703125 C 220.414062 253.148438 220.585938 252.425781 220.585938 251.542969 C 220.585938 250.839844 220.457031 250.234375 220.191406 249.734375 C 219.925781 249.234375 219.582031 248.824219 219.15625 248.496094 C 218.730469 248.171875 218.238281 247.941406 217.679688 247.792969 C 217.125 247.648438 216.535156 247.570312 215.917969 247.570312 C 214.597656 247.570312 213.421875 247.769531 212.390625 248.167969 C 211.363281 248.566406 210.457031 249.015625 209.664062 249.511719 L 207.722656 245.546875 C 208.132812 245.277344 208.636719 245 209.222656 244.703125 C 209.808594 244.40625 210.460938 244.132812 211.179688 243.867188 C 211.898438 243.601562 212.671875 243.390625 213.496094 243.226562 C 214.316406 243.066406 215.183594 242.980469 216.09375 242.980469 C 217.796875 242.980469 219.265625 243.1875 220.496094 243.601562 C 221.734375 244.015625 222.75 244.59375 223.558594 245.34375 C 224.367188 246.089844 224.972656 246.976562 225.367188 247.992188 C 225.765625 249.003906 225.960938 250.117188 225.960938 251.324219 C 225.960938 252.734375 225.574219 254 224.796875 255.117188 C 224.015625 256.238281 223.007812 257.089844 221.777344 257.675781 C 223.363281 258.238281 224.675781 259.167969 225.722656 260.457031 C 226.765625 261.757812 227.28125 263.414062 227.28125 265.449219 C 227.28125 266.800781 227.050781 268.0625 226.578125 269.222656 C 226.109375 270.382812 225.390625 271.382812 224.421875 272.226562 C 223.453125 273.0625 222.226562 273.726562 220.742188 274.207031 C 219.261719 274.695312 217.488281 274.9375 215.429688 274.9375 " fill-opacity="1" fill-rule="nonzero"/><path fill="#cecdd0" d="M 120.847656 222.175781 L 74.957031 222.175781 L 74.957031 176.203125 L 120.847656 176.203125 L 120.847656 222.175781 " fill-opacity="1" fill-rule="nonzero"/><path fill="#3f5267" d="M 100.285156 190.476562 C 99.582031 191.328125 98.851562 192.238281 98.097656 193.207031 C 97.355469 194.183594 96.628906 195.195312 95.921875 196.253906 C 95.21875 197.3125 94.539062 198.394531 93.894531 199.503906 C 93.25 200.605469 92.664062 201.699219 92.132812 202.785156 L 100.285156 202.785156 Z M 105.480469 183.898438 L 105.480469 202.785156 L 108.917969 202.785156 L 108.917969 207.15625 L 105.480469 207.15625 L 105.480469 214.484375 L 100.285156 214.484375 L 100.285156 207.15625 L 86.890625 207.15625 L 86.890625 203.363281 C 87.476562 202.066406 88.265625 200.582031 89.246094 198.902344 C 90.230469 197.230469 91.324219 195.507812 92.527344 193.738281 C 93.730469 191.972656 95.011719 190.238281 96.363281 188.535156 C 97.714844 186.824219 99.0625 185.28125 100.414062 183.898438 L 105.480469 183.898438 " fill-opacity="1" fill-rule="nonzero"/><path fill="#cecdd0" d="M 180.503906 222.175781 L 134.613281 222.175781 L 134.613281 176.203125 L 180.503906 176.203125 L 180.503906 222.175781 " fill-opacity="1" fill-rule="nonzero"/><path fill="#3f5267" d="M 162.03125 205.414062 C 162.03125 204.445312 161.84375 203.578125 161.457031 202.8125 C 161.074219 202.046875 160.410156 201.398438 159.457031 200.867188 C 158.5 200.339844 157.21875 199.941406 155.625 199.675781 C 154.019531 199.414062 152 199.28125 149.5625 199.28125 C 149.886719 196.457031 150.132812 193.769531 150.3125 191.226562 C 150.488281 188.679688 150.636719 186.128906 150.753906 183.566406 L 166.347656 183.566406 L 166.347656 188.070312 L 155.289062 188.070312 C 155.265625 188.566406 155.226562 189.132812 155.179688 189.769531 C 155.136719 190.402344 155.09375 191.042969 155.046875 191.6875 C 155.003906 192.335938 154.953125 192.953125 154.894531 193.542969 C 154.835938 194.128906 154.777344 194.632812 154.71875 195.042969 C 159.066406 195.28125 162.277344 196.277344 164.34375 198.023438 C 166.417969 199.773438 167.453125 202.167969 167.453125 205.191406 C 167.453125 206.582031 167.214844 207.855469 166.746094 209.03125 C 166.273438 210.210938 165.554688 211.226562 164.585938 212.078125 C 163.617188 212.933594 162.398438 213.605469 160.933594 214.085938 C 159.460938 214.574219 157.742188 214.8125 155.777344 214.8125 C 154.984375 214.8125 154.175781 214.753906 153.355469 214.636719 C 152.53125 214.523438 151.746094 214.378906 150.996094 214.21875 C 150.246094 214.0625 149.578125 213.886719 148.992188 213.710938 C 148.40625 213.535156 147.964844 213.371094 147.671875 213.230469 L 148.683594 208.726562 C 149.296875 209.023438 150.1875 209.335938 151.351562 209.675781 C 152.507812 210.011719 153.925781 210.183594 155.601562 210.183594 C 156.746094 210.183594 157.726562 210.054688 158.554688 209.804688 C 159.371094 209.558594 160.042969 209.207031 160.558594 208.769531 C 161.070312 208.328125 161.445312 207.820312 161.679688 207.246094 C 161.917969 206.675781 162.03125 206.0625 162.03125 205.414062 " fill-opacity="1" fill-rule="nonzero"/><path fill="#cecdd0" d="M 240.164062 222.175781 L 194.273438 222.175781 L 194.273438 176.203125 L 240.164062 176.203125 L 240.164062 222.175781 " fill-opacity="1" fill-rule="nonzero"/><path fill="#3f5267" d="M 216.929688 199.371094 C 216.078125 199.371094 215.257812 199.445312 214.464844 199.59375 C 213.671875 199.742188 212.953125 199.957031 212.304688 200.25 C 212.273438 200.488281 212.253906 200.746094 212.238281 201.023438 C 212.222656 201.304688 212.214844 201.574219 212.214844 201.839844 C 212.214844 203.019531 212.296875 204.128906 212.460938 205.171875 C 212.625 206.214844 212.898438 207.132812 213.296875 207.910156 C 213.691406 208.6875 214.238281 209.304688 214.925781 209.765625 C 215.617188 210.21875 216.472656 210.449219 217.503906 210.449219 C 218.355469 210.449219 219.082031 210.273438 219.683594 209.917969 C 220.285156 209.5625 220.777344 209.105469 221.160156 208.550781 C 221.539062 207.988281 221.820312 207.378906 221.992188 206.71875 C 222.175781 206.054688 222.265625 205.414062 222.265625 204.792969 C 222.265625 203.03125 221.835938 201.683594 220.984375 200.757812 C 220.132812 199.835938 218.777344 199.371094 216.929688 199.371094 Z M 217.589844 195.132812 C 219.414062 195.132812 220.964844 195.390625 222.238281 195.90625 C 223.515625 196.417969 224.554688 197.117188 225.347656 198.003906 C 226.140625 198.882812 226.714844 199.90625 227.085938 201.070312 C 227.453125 202.230469 227.636719 203.445312 227.636719 204.710938 C 227.636719 205.855469 227.441406 207.035156 227.039062 208.238281 C 226.640625 209.445312 226.027344 210.542969 225.195312 211.527344 C 224.351562 212.515625 223.304688 213.324219 222.042969 213.953125 C 220.777344 214.589844 219.28125 214.902344 217.546875 214.902344 C 214.050781 214.902344 211.386719 213.753906 209.550781 211.4375 C 207.714844 209.128906 206.800781 205.945312 206.800781 201.886719 C 206.800781 198.941406 207.230469 196.335938 208.097656 194.050781 C 208.964844 191.773438 210.195312 189.851562 211.796875 188.292969 C 213.402344 186.734375 215.335938 185.546875 217.617188 184.738281 C 219.890625 183.925781 222.453125 183.507812 225.300781 183.480469 L 225.609375 187.894531 C 224.023438 187.921875 222.539062 188.089844 221.160156 188.402344 C 219.777344 188.710938 218.546875 189.1875 217.460938 189.839844 C 216.371094 190.484375 215.441406 191.324219 214.660156 192.351562 C 213.882812 193.382812 213.289062 194.648438 212.878906 196.148438 C 214.316406 195.46875 215.886719 195.132812 217.589844 195.132812 " fill-opacity="1" fill-rule="nonzero"/><path fill="#cecdd0" d="M 120.847656 162.414062 L 74.957031 162.414062 L 74.957031 116.4375 L 120.847656 116.4375 L 120.847656 162.414062 " fill-opacity="1" fill-rule="nonzero"/><path fill="#3f5267" d="M 92.15625 154.71875 C 92.332031 152.484375 92.726562 150.125 93.34375 147.65625 C 93.957031 145.183594 94.714844 142.777344 95.613281 140.4375 C 96.507812 138.101562 97.492188 135.90625 98.566406 133.863281 C 99.636719 131.816406 100.703125 130.105469 101.757812 128.71875 L 87.703125 128.71875 L 87.703125 124.136719 L 108.097656 124.136719 L 108.097656 128.195312 C 107.132812 129.28125 106.074219 130.769531 104.933594 132.648438 C 103.785156 134.535156 102.699219 136.660156 101.667969 139.027344 C 100.644531 141.394531 99.753906 143.933594 99.003906 146.640625 C 98.257812 149.347656 97.792969 152.039062 97.617188 154.71875 L 92.15625 154.71875 " fill-opacity="1" fill-rule="nonzero"/><path fill="#cecdd0" d="M 180.503906 162.414062 L 134.613281 162.414062 L 134.613281 116.4375 L 180.503906 116.4375 L 180.503906 162.414062 " fill-opacity="1" fill-rule="nonzero"/><path fill="#3f5267" d="M 162.011719 131.699219 C 162.011719 131.320312 161.933594 130.902344 161.769531 130.445312 C 161.605469 129.988281 161.339844 129.566406 160.976562 129.183594 C 160.609375 128.808594 160.144531 128.480469 159.589844 128.214844 C 159.027344 127.949219 158.351562 127.816406 157.558594 127.816406 C 156.765625 127.816406 156.082031 127.945312 155.511719 128.195312 C 154.941406 128.441406 154.476562 128.765625 154.121094 129.164062 C 153.773438 129.558594 153.507812 129.988281 153.332031 130.445312 C 153.152344 130.902344 153.070312 131.351562 153.070312 131.789062 C 153.070312 132.910156 153.488281 133.96875 154.324219 134.96875 C 155.15625 135.972656 156.558594 136.761719 158.53125 137.355469 C 159.617188 136.675781 160.46875 135.902344 161.085938 135.03125 C 161.699219 134.164062 162.011719 133.058594 162.011719 131.699219 Z M 152.40625 146.792969 C 152.40625 147.238281 152.492188 147.710938 152.671875 148.207031 C 152.847656 148.707031 153.136719 149.167969 153.550781 149.574219 C 153.960938 149.988281 154.492188 150.332031 155.136719 150.613281 C 155.78125 150.894531 156.589844 151.03125 157.558594 151.03125 C 158.441406 151.03125 159.203125 150.914062 159.855469 150.683594 C 160.5 150.445312 161.027344 150.132812 161.441406 149.730469 C 161.847656 149.332031 162.152344 148.875 162.367188 148.363281 C 162.566406 147.847656 162.671875 147.324219 162.671875 146.792969 C 162.671875 145.972656 162.507812 145.253906 162.1875 144.632812 C 161.863281 144.019531 161.398438 143.476562 160.800781 143.023438 C 160.199219 142.566406 159.484375 142.167969 158.664062 141.832031 C 157.839844 141.492188 156.929688 141.1875 155.929688 140.925781 C 154.871094 141.601562 154.019531 142.417969 153.375 143.378906 C 152.730469 144.332031 152.40625 145.476562 152.40625 146.792969 Z M 167.960938 146.535156 C 167.960938 147.796875 167.738281 148.976562 167.292969 150.0625 C 166.855469 151.15625 166.195312 152.09375 165.316406 152.886719 C 164.433594 153.679688 163.339844 154.300781 162.03125 154.742188 C 160.726562 155.179688 159.21875 155.402344 157.515625 155.402344 C 155.515625 155.402344 153.855469 155.121094 152.539062 154.5625 C 151.21875 154.003906 150.160156 153.300781 149.367188 152.445312 C 148.574219 151.59375 148.007812 150.671875 147.671875 149.6875 C 147.332031 148.703125 147.164062 147.769531 147.164062 146.882812 C 147.164062 146.003906 147.289062 145.183594 147.539062 144.4375 C 147.785156 143.683594 148.136719 142.996094 148.574219 142.359375 C 149.011719 141.730469 149.515625 141.148438 150.070312 140.617188 C 150.625 140.085938 151.21875 139.621094 151.832031 139.207031 C 150.484375 138.265625 149.480469 137.242188 148.816406 136.136719 C 148.15625 135.03125 147.824219 133.6875 147.824219 132.097656 C 147.824219 130.953125 148.050781 129.855469 148.503906 128.8125 C 148.960938 127.765625 149.617188 126.847656 150.46875 126.054688 C 151.320312 125.257812 152.34375 124.628906 153.550781 124.15625 C 154.757812 123.683594 156.09375 123.445312 157.558594 123.445312 C 159.292969 123.445312 160.769531 123.699219 161.988281 124.199219 C 163.207031 124.703125 164.207031 125.347656 164.984375 126.144531 C 165.761719 126.9375 166.328125 127.816406 166.679688 128.785156 C 167.035156 129.761719 167.210938 130.699219 167.210938 131.617188 C 167.210938 133.230469 166.769531 134.667969 165.886719 135.917969 C 165.003906 137.167969 163.996094 138.164062 162.847656 138.894531 C 164.582031 139.839844 165.867188 140.925781 166.703125 142.164062 C 167.539062 143.398438 167.960938 144.855469 167.960938 146.535156 " fill-opacity="1" fill-rule="nonzero"/><path fill="#cecdd0" d="M 240.164062 162.414062 L 194.273438 162.414062 L 194.273438 116.4375 L 240.164062 116.4375 L 240.164062 162.414062 " fill-opacity="1" fill-rule="nonzero"/><path fill="#3f5267" d="M 217.527344 139.179688 C 218.378906 139.179688 219.210938 139.101562 220.039062 138.941406 C 220.855469 138.777344 221.566406 138.535156 222.152344 138.210938 C 222.179688 137.886719 222.195312 137.609375 222.195312 137.375 C 222.195312 137.136719 222.195312 136.929688 222.195312 136.753906 C 222.195312 135.578125 222.117188 134.472656 221.953125 133.421875 C 221.792969 132.378906 221.511719 131.46875 221.117188 130.6875 C 220.71875 129.90625 220.175781 129.289062 219.488281 128.835938 C 218.792969 128.378906 217.9375 128.152344 216.90625 128.152344 C 216.054688 128.152344 215.332031 128.324219 214.726562 128.679688 C 214.125 129.03125 213.632812 129.492188 213.253906 130.046875 C 212.871094 130.605469 212.59375 131.207031 212.417969 131.855469 C 212.238281 132.507812 212.148438 133.136719 212.148438 133.75 C 212.148438 135.550781 212.582031 136.902344 213.449219 137.816406 C 214.316406 138.726562 215.675781 139.179688 217.527344 139.179688 Z M 221.707031 142.402344 C 221.003906 142.726562 220.226562 142.980469 219.375 143.15625 C 218.519531 143.335938 217.699219 143.417969 216.90625 143.417969 C 215.085938 143.417969 213.539062 143.175781 212.257812 142.695312 C 210.984375 142.207031 209.941406 141.527344 209.132812 140.660156 C 208.324219 139.796875 207.730469 138.785156 207.351562 137.640625 C 206.964844 136.488281 206.773438 135.253906 206.773438 133.929688 C 206.773438 132.78125 206.964844 131.609375 207.351562 130.425781 C 207.730469 129.230469 208.335938 128.136719 209.15625 127.132812 C 209.972656 126.132812 211.015625 125.316406 212.285156 124.6875 C 213.542969 124.054688 215.046875 123.734375 216.773438 123.734375 C 220.359375 123.734375 223.066406 124.894531 224.902344 127.203125 C 226.738281 129.507812 227.65625 132.769531 227.65625 136.976562 C 227.65625 142.921875 226.128906 147.425781 223.078125 150.480469 C 220.023438 153.542969 215.335938 155.085938 209.023438 155.117188 L 208.800781 150.65625 C 210.566406 150.65625 212.160156 150.511719 213.582031 150.214844 C 215.007812 149.921875 216.257812 149.453125 217.324219 148.808594 C 218.398438 148.15625 219.300781 147.3125 220.039062 146.265625 C 220.773438 145.222656 221.328125 143.933594 221.707031 142.402344 " fill-opacity="1" fill-rule="nonzero"/><path fill="#cecdd0" d="M 180.503906 341.710938 L 134.613281 341.710938 L 134.613281 295.738281 L 180.503906 295.738281 L 180.503906 341.710938 " fill-opacity="1" fill-rule="nonzero"/><path fill="#3f5267" d="M 161.085938 318.746094 C 161.085938 319.777344 160.742188 320.617188 160.050781 321.261719 C 159.355469 321.910156 158.53125 322.238281 157.558594 322.238281 C 156.558594 322.238281 155.722656 321.910156 155.050781 321.261719 C 154.375 320.617188 154.035156 319.777344 154.035156 318.746094 C 154.035156 317.71875 154.375 316.871094 155.050781 316.207031 C 155.722656 315.546875 156.558594 315.21875 157.558594 315.21875 C 158.53125 315.21875 159.355469 315.546875 160.050781 316.207031 C 160.742188 316.871094 161.085938 317.71875 161.085938 318.746094 " fill-opacity="1" fill-rule="nonzero"/><path fill="#cecdd0" d="M 240.164062 341.710938 L 194.273438 341.710938 L 194.273438 295.738281 L 240.164062 295.738281 L 240.164062 341.710938 " fill-opacity="1" fill-rule="nonzero"/><path fill="#3f5267" d="M 206.996094 321.242188 L 227.433594 321.242188 L 227.433594 325.742188 L 206.996094 325.742188 Z M 206.996094 311.703125 L 227.433594 311.703125 L 227.433594 316.207031 L 206.996094 316.207031 L 206.996094 311.703125 " fill-opacity="1" fill-rule="nonzero"/><path fill="#f0c252" d="M 299.820312 162.414062 L 253.929688 162.414062 L 253.929688 116.4375 L 299.820312 116.4375 L 299.820312 162.414062 " fill-opacity="1" fill-rule="nonzero"/><path fill="#3f5267" d="M 266.652344 137.171875 L 274.496094 137.171875 L 274.496094 128.527344 L 279.253906 128.527344 L 279.253906 137.171875 L 287.097656 137.171875 L 287.097656 141.675781 L 279.253906 141.675781 L 279.253906 150.328125 L 274.496094 150.328125 L 274.496094 141.675781 L 266.652344 141.675781 L 266.652344 137.171875 " fill-opacity="1" fill-rule="nonzero"/><path fill="#d84f52" d="M 299.820312 222.355469 L 253.929688 222.355469 L 253.929688 176.382812 L 299.820312 176.382812 L 299.820312 222.355469 " fill-opacity="1" fill-rule="nonzero"/><path fill="#3f5267" d="M 266.652344 196.921875 L 287.097656 196.921875 L 287.097656 201.816406 L 266.652344 201.816406 L 266.652344 196.921875 " fill-opacity="1" fill-rule="nonzero"/><path fill="#dc7e2c" d="M 299.820312 281.945312 L 253.929688 281.945312 L 253.929688 235.972656 L 299.820312 235.972656 L 299.820312 281.945312 " fill-opacity="1" fill-rule="nonzero"/><path fill="#3f5267" d="M 283.085938 249.582031 L 286.210938 252.757812 L 280.003906 258.980469 L 286.210938 265.15625 L 283.085938 268.335938 L 276.875 262.113281 L 270.664062 268.335938 L 267.535156 265.15625 L 273.742188 258.980469 L 267.535156 252.757812 L 270.664062 249.582031 L 276.875 255.800781 L 283.085938 249.582031 " fill-opacity="1" fill-rule="nonzero"/><path fill="#55c498" d="M 299.949219 341.886719 L 254.0625 341.886719 L 254.0625 295.917969 L 299.949219 295.917969 L 299.949219 341.886719 " fill-opacity="1" fill-rule="nonzero"/><path fill="#3f5267" d="M 280.222656 327.640625 C 280.222656 328.640625 279.898438 329.421875 279.253906 329.980469 C 278.609375 330.539062 277.859375 330.820312 277.007812 330.820312 C 276.15625 330.820312 275.414062 330.539062 274.78125 329.980469 C 274.152344 329.421875 273.832031 328.640625 273.832031 327.640625 C 273.832031 326.613281 274.152344 325.816406 274.78125 325.257812 C 275.414062 324.699219 276.15625 324.417969 277.007812 324.417969 C 277.859375 324.417969 278.609375 324.699219 279.253906 325.257812 C 279.898438 325.816406 280.222656 326.613281 280.222656 327.640625 Z M 280.222656 310.164062 C 280.222656 311.191406 279.898438 311.984375 279.253906 312.546875 C 278.609375 313.109375 277.859375 313.382812 277.007812 313.382812 C 276.15625 313.382812 275.414062 313.109375 274.78125 312.546875 C 274.152344 311.984375 273.832031 311.191406 273.832031 310.164062 C 273.832031 309.160156 274.152344 308.382812 274.78125 307.828125 C 275.414062 307.265625 276.15625 306.984375 277.007812 306.984375 C 277.859375 306.984375 278.609375 307.265625 279.253906 307.828125 C 279.898438 308.382812 280.222656 309.160156 280.222656 310.164062 Z M 266.785156 316.652344 L 287.222656 316.652344 L 287.222656 321.152344 L 266.785156 321.152344 L 266.785156 316.652344 " fill-opacity="1" fill-rule="nonzero"/></svg>